<svg xmlns="http://www.w3.org/2000/svg" viewBox="0 0 1660 820" font-family="Helvetica, Arial, sans-serif"><rect width="1660" height="820" fill="#ffffff"/><text x="40.0" y="42.0" font-family="Helvetica, Arial, sans-serif" font-size="22" fill="#1a1f24" text-anchor="start" font-weight="700">CrowdSTNet  —  joint crowd density estimation &amp; behaviour classification</text><text x="40.0" y="66.0" font-family="Helvetica, Arial, sans-serif" font-size="12.5" fill="#5b6672" text-anchor="start" font-weight="400">Shared grayscale frames  ·  native-crop dilated density branch (crowd count, 18.86 MAE)  +  resized-frame ConvLSTM behaviour branch</text><rect x="40.0" y="360.0" width="108.0" height="92.0" rx="7" fill="#20242b" fill-opacity="1" stroke="#1a1f24" stroke-width="1.6"/><circle cx="62" cy="386" r="2.3" fill="#ffd36b"/><circle cx="90" cy="392" r="2.3" fill="#ffd36b"/><circle cx="112" cy="382" r="2.3" fill="#ffd36b"/><circle cx="72" cy="414" r="2.3" fill="#ffd36b"/><circle cx="102" cy="420" r="2.3" fill="#ffd36b"/><circle cx="124" cy="404" r="2.3" fill="#ffd36b"/><circle cx="58" cy="424" r="2.3" fill="#ffd36b"/><text x="94.0" y="470.0" font-family="Helvetica, Arial, sans-serif" font-size="10.5" fill="#1a1f24" text-anchor="middle" font-weight="600">Input frames</text><text x="94.0" y="484.0" font-family="'DejaVu Sans Mono', Consolas, monospace" font-size="9.2" fill="#5b6672" text-anchor="middle" font-weight="400">grayscale · 1080×1920</text><line x1="150.0" y1="380.0" x2="294.0" y2="196.0" stroke="#c05a12" stroke-width="2"/><path d="M 300.0 196.0 l -8 -4 l 0 8 z" fill="#c05a12"/><rect x="168.0" y="168.0" width="116.4" height="22.0" rx="11" fill="#ffffff" fill-opacity="1" stroke="#c05a12" stroke-width="1.4"/><text x="226.2" y="183.0" font-family="'DejaVu Sans Mono', Consolas, monospace" font-size="9.5" fill="#c05a12" text-anchor="middle" font-weight="700">512² native crop</text><line x1="150.0" y1="432.0" x2="190.0" y2="480.0" stroke="#6b3fa0" stroke-width="2"/><path d="M 196.0 480.0 l -8 -4 l 0 8 z" fill="#6b3fa0"/><rect x="170.0" y="498.0" width="84.4" height="22.0" rx="11" fill="#ffffff" fill-opacity="1" stroke="#6b3fa0" stroke-width="1.4"/><text x="212.2" y="513.0" font-family="'DejaVu Sans Mono', Consolas, monospace" font-size="9.5" fill="#6b3fa0" text-anchor="middle" font-weight="700">resize 224²</text><path d="M 298 156 L 298 148 L 980 148 L 980 156" fill="none" stroke="#c05a12" stroke-width="1.6"/><text x="639.0" y="142.0" font-family="Helvetica, Arial, sans-serif" font-size="12.5" fill="#c05a12" text-anchor="middle" font-weight="700">DENSITY  BRANCH   (native crop · dilated · crowd count)</text><rect x="306.0" y="152.0" width="150.0" height="92.0" rx="5" fill="#d5efef" fill-opacity="0.5" stroke="#12868a" stroke-width="1.0"/><rect x="303.0" y="155.0" width="150.0" height="92.0" rx="5" fill="#d5efef" fill-opacity="0.5" stroke="#12868a" stroke-width="1.0"/><rect x="300.0" y="158.0" width="150.0" height="92.0" rx="5" fill="#d5efef" fill-opacity="1" stroke="#12868a" stroke-width="1.7"/><text x="375.0" y="196.0" font-family="Helvetica, Arial, sans-serif" font-size="10.6" fill="#1a1f24" text-anchor="middle" font-weight="600">MobileNetV3</text><text x="375.0" y="209.0" font-family="Helvetica, Arial, sans-serif" font-size="10.6" fill="#1a1f24" text-anchor="middle" font-weight="600">backbone</text><text x="375.0" y="221.0" font-family="Helvetica, Arial, sans-serif" font-size="8.4" fill="#5b6672" text-anchor="middle" font-weight="400">dilated · OS-8</text><line x1="454.0" y1="204.0" x2="502.0" y2="204.0" stroke="#c05a12" stroke-width="1.7"/><path d="M 508.0 204.0 l -8 -4 l 0 8 z" fill="#c05a12"/><text x="481.0" y="196.0" font-family="'DejaVu Sans Mono', Consolas, monospace" font-size="9" fill="#c05a12" text-anchor="middle" font-weight="600">576×64×64</text><rect x="518.0" y="166.0" width="150.0" height="64.0" rx="5" fill="#fbe8d8" fill-opacity="0.5" stroke="#c05a12" stroke-width="1.0"/><rect x="515.0" y="169.0" width="150.0" height="64.0" rx="5" fill="#fbe8d8" fill-opacity="0.5" stroke="#c05a12" stroke-width="1.0"/><rect x="512.0" y="172.0" width="150.0" height="64.0" rx="5" fill="#fbe8d8" fill-opacity="1" stroke="#c05a12" stroke-width="1.7"/><text x="587.0" y="201.0" font-family="Helvetica, Arial, sans-serif" font-size="10.6" fill="#1a1f24" text-anchor="middle" font-weight="600">Fully convolutional</text><text x="587.0" y="214.0" font-family="Helvetica, Arial, sans-serif" font-size="10.6" fill="#1a1f24" text-anchor="middle" font-weight="600">regressor (dilated)</text><line x1="666.0" y1="204.0" x2="676.0" y2="204.0" stroke="#c05a12" stroke-width="1.6"/><path d="M 682.0 204.0 l -8 -4 l 0 8 z" fill="#c05a12"/><rect x="686.0" y="172.0" width="84.0" height="64.0" rx="5" fill="#dbe7fb" fill-opacity="1" stroke="#2f6fd8" stroke-width="1.7"/><circle cx="708" cy="192" r="10" fill="#2f6fd8" fill-opacity="0.45"/><circle cx="732" cy="200" r="8" fill="#2f6fd8" fill-opacity="0.4"/><circle cx="718" cy="218" r="10" fill="#2f6fd8" fill-opacity="0.425"/><circle cx="744" cy="220" r="7" fill="#2f6fd8" fill-opacity="0.35"/><circle cx="702" cy="214" r="6" fill="#2f6fd8" fill-opacity="0.3"/><text x="728.0" y="202.0" font-family="Helvetica, Arial, sans-serif" font-size="9.8" fill="#1a1f24" text-anchor="middle" font-weight="600">Density map</text><text x="728.0" y="248.0" font-family="'DejaVu Sans Mono', Consolas, monospace" font-size="9.4" fill="#5b6672" text-anchor="middle" font-weight="400">1×64×64</text><line x1="774.0" y1="204.0" x2="786.0" y2="204.0" stroke="#2f6fd8" stroke-width="2"/><path d="M 792.0 204.0 l -8 -4 l 0 8 z" fill="#2f6fd8"/><rect x="798.0" y="180.0" width="208.0" height="48.0" rx="8" fill="#dcefe0" fill-opacity="1" stroke="#2b7a3d" stroke-width="1.7"/><text x="902.0" y="202.0" font-family="Helvetica, Arial, sans-serif" font-size="12" fill="#1a1f24" text-anchor="middle" font-weight="700">Crowd count</text><text x="902.0" y="218.0" font-family="'DejaVu Sans Mono', Consolas, monospace" font-size="11" fill="#2b7a3d" text-anchor="middle" font-weight="600">= Σ D(x, y)</text><path d="M 298 440 L 298 432 L 1560 432 L 1560 440" fill="none" stroke="#6b3fa0" stroke-width="1.6"/><text x="929.0" y="426.0" font-family="Helvetica, Arial, sans-serif" font-size="12.5" fill="#6b3fa0" text-anchor="middle" font-weight="700">TEMPORAL  CLASSIFICATION  BRANCH   (resized frames · behaviour)</text><line x1="256.4" y1="509.0" x2="294.0" y2="470.0" stroke="#6b3fa0" stroke-width="1.7"/><path d="M 300.0 470.0 l -8 -4 l 0 8 z" fill="#6b3fa0"/><rect x="306.0" y="436.0" width="150.0" height="74.0" rx="5" fill="#d5efef" fill-opacity="0.5" stroke="#12868a" stroke-width="1.0"/><rect x="303.0" y="439.0" width="150.0" height="74.0" rx="5" fill="#d5efef" fill-opacity="0.5" stroke="#12868a" stroke-width="1.0"/><rect x="300.0" y="442.0" width="150.0" height="74.0" rx="5" fill="#d5efef" fill-opacity="1" stroke="#12868a" stroke-width="1.7"/><text x="375.0" y="471.0" font-family="Helvetica, Arial, sans-serif" font-size="10.6" fill="#1a1f24" text-anchor="middle" font-weight="600">MobileNetV3</text><text x="375.0" y="484.0" font-family="Helvetica, Arial, sans-serif" font-size="10.6" fill="#1a1f24" text-anchor="middle" font-weight="600">backbone</text><text x="375.0" y="496.0" font-family="Helvetica, Arial, sans-serif" font-size="8.4" fill="#5b6672" text-anchor="middle" font-weight="400">@224 · orig. strides</text><line x1="454.0" y1="479.0" x2="502.0" y2="479.0" stroke="#6b3fa0" stroke-width="1.6"/><path d="M 508.0 479.0 l -8 -4 l 0 8 z" fill="#6b3fa0"/><text x="481.0" y="471.0" font-family="'DejaVu Sans Mono', Consolas, monospace" font-size="9" fill="#6b3fa0" text-anchor="middle" font-weight="600">576×7×7</text><rect x="518.0" y="443.0" width="120.0" height="60.0" rx="5" fill="#ece2f7" fill-opacity="0.5" stroke="#6b3fa0" stroke-width="1.0"/><rect x="515.0" y="446.0" width="120.0" height="60.0" rx="5" fill="#ece2f7" fill-opacity="0.5" stroke="#6b3fa0" stroke-width="1.0"/><rect x="512.0" y="449.0" width="120.0" height="60.0" rx="5" fill="#ece2f7" fill-opacity="1" stroke="#6b3fa0" stroke-width="1.7"/><text x="572.0" y="476.0" font-family="Helvetica, Arial, sans-serif" font-size="10.6" fill="#1a1f24" text-anchor="middle" font-weight="600">Spatial</text><text x="572.0" y="489.0" font-family="Helvetica, Arial, sans-serif" font-size="10.6" fill="#1a1f24" text-anchor="middle" font-weight="600">Reduction</text><text x="572.0" y="521.0" font-family="'DejaVu Sans Mono', Consolas, monospace" font-size="9.5" fill="#5b6672" text-anchor="middle" font-weight="400">64×7×7</text><text x="375.0" y="542.0" font-family="Helvetica, Arial, sans-serif" font-size="8.2" fill="#5b6672" text-anchor="middle" font-weight="400" font-style="italic">(shared synthetic weights with density backbone)</text><line x1="210.0" y1="520.0" x2="314.0" y2="600.0" stroke="#2b7a3d" stroke-width="1.7"/><path d="M 320.0 600.0 l -8 -4 l 0 8 z" fill="#2b7a3d"/><rect x="306.0" y="586.0" width="130.0" height="64.0" rx="5" fill="#dcefe0" fill-opacity="0.5" stroke="#2b7a3d" stroke-width="1.0"/><rect x="303.0" y="589.0" width="130.0" height="64.0" rx="5" fill="#dcefe0" fill-opacity="0.5" stroke="#2b7a3d" stroke-width="1.0"/><rect x="300.0" y="592.0" width="130.0" height="64.0" rx="5" fill="#dcefe0" fill-opacity="1" stroke="#2b7a3d" stroke-width="1.7"/><text x="365.0" y="623.0" font-family="Helvetica, Arial, sans-serif" font-size="10.6" fill="#1a1f24" text-anchor="middle" font-weight="600">Flow estimation</text><text x="365.0" y="635.0" font-family="Helvetica, Arial, sans-serif" font-size="8.4" fill="#5b6672" text-anchor="middle" font-weight="400">Farneback (resized frames)</text><text x="365.0" y="668.0" font-family="'DejaVu Sans Mono', Consolas, monospace" font-size="9.5" fill="#5b6672" text-anchor="middle" font-weight="400">2×224² × T</text><line x1="434.0" y1="624.0" x2="444.0" y2="624.0" stroke="#2b7a3d" stroke-width="1.6"/><path d="M 450.0 624.0 l -8 -4 l 0 8 z" fill="#2b7a3d"/><rect x="460.0" y="586.0" width="104.0" height="64.0" rx="5" fill="#dcefe0" fill-opacity="0.5" stroke="#2b7a3d" stroke-width="1.0"/><rect x="457.0" y="589.0" width="104.0" height="64.0" rx="5" fill="#dcefe0" fill-opacity="0.5" stroke="#2b7a3d" stroke-width="1.0"/><rect x="454.0" y="592.0" width="104.0" height="64.0" rx="5" fill="#dcefe0" fill-opacity="1" stroke="#2b7a3d" stroke-width="1.7"/><text x="506.0" y="621.0" font-family="Helvetica, Arial, sans-serif" font-size="10.6" fill="#1a1f24" text-anchor="middle" font-weight="600">Pre-filter</text><text x="506.0" y="634.0" font-family="Helvetica, Arial, sans-serif" font-size="10.6" fill="#1a1f24" text-anchor="middle" font-weight="600">(Denoise)</text><line x1="562.0" y1="624.0" x2="572.0" y2="624.0" stroke="#2b7a3d" stroke-width="1.6"/><path d="M 578.0 624.0 l -8 -4 l 0 8 z" fill="#2b7a3d"/><rect x="588.0" y="578.0" width="150.0" height="80.0" rx="5" fill="#e6dcf5" fill-opacity="0.5" stroke="#6b3fa0" stroke-width="1.0"/><rect x="585.0" y="581.0" width="150.0" height="80.0" rx="5" fill="#e6dcf5" fill-opacity="0.5" stroke="#6b3fa0" stroke-width="1.0"/><rect x="582.0" y="584.0" width="150.0" height="80.0" rx="5" fill="#e6dcf5" fill-opacity="1" stroke="#6b3fa0" stroke-width="1.7"/><text x="657.0" y="614.0" font-family="Helvetica, Arial, sans-serif" font-size="10.6" fill="#1a1f24" text-anchor="middle" font-weight="600">Motion CNN</text><text x="657.0" y="627.0" font-family="Helvetica, Arial, sans-serif" font-size="10.6" fill="#1a1f24" text-anchor="middle" font-weight="600">(residual depthwise</text><text x="657.0" y="640.0" font-family="Helvetica, Arial, sans-serif" font-size="10.6" fill="#1a1f24" text-anchor="middle" font-weight="600">+ SE attention)</text><text x="657.0" y="676.0" font-family="'DejaVu Sans Mono', Consolas, monospace" font-size="9.5" fill="#5b6672" text-anchor="middle" font-weight="400">64×7×7</text><rect x="786.0" y="494.0" width="110.0" height="64.0" rx="5" fill="#ded0f2" fill-opacity="0.5" stroke="#6b3fa0" stroke-width="1.0"/><rect x="783.0" y="497.0" width="110.0" height="64.0" rx="5" fill="#ded0f2" fill-opacity="0.5" stroke="#6b3fa0" stroke-width="1.0"/><rect x="780.0" y="500.0" width="110.0" height="64.0" rx="5" fill="#ded0f2" fill-opacity="1" stroke="#6b3fa0" stroke-width="1.7"/><text x="835.0" y="536.0" font-family="Helvetica, Arial, sans-serif" font-size="10.6" fill="#1a1f24" text-anchor="middle" font-weight="600">Concatenation</text><text x="835.0" y="576.0" font-family="'DejaVu Sans Mono', Consolas, monospace" font-size="9.5" fill="#5b6672" text-anchor="middle" font-weight="400">128×7×7</text><line x1="636.0" y1="509.0" x2="770.0" y2="516.0" stroke="#6b3fa0" stroke-width="1.6"/><path d="M 776.0 516.0 l -8 -4 l 0 8 z" fill="#6b3fa0"/><line x1="730.0" y1="624.0" x2="824.0" y2="566.0" stroke="#6b3fa0" stroke-width="1.6"/><path d="M 830.0 566.0 l -8 -4 l 0 8 z" fill="#6b3fa0"/><line x1="892.0" y1="532.0" x2="900.0" y2="532.0" stroke="#6b3fa0" stroke-width="1.6"/><path d="M 906.0 532.0 l -8 -4 l 0 8 z" fill="#6b3fa0"/><rect x="916.0" y="494.0" width="86.0" height="64.0" rx="5" fill="#ece2f7" fill-opacity="0.5" stroke="#6b3fa0" stroke-width="1.0"/><rect x="913.0" y="497.0" width="86.0" height="64.0" rx="5" fill="#ece2f7" fill-opacity="0.5" stroke="#6b3fa0" stroke-width="1.0"/><rect x="910.0" y="500.0" width="86.0" height="64.0" rx="5" fill="#ece2f7" fill-opacity="1" stroke="#6b3fa0" stroke-width="1.7"/><text x="953.0" y="536.0" font-family="Helvetica, Arial, sans-serif" font-size="10.6" fill="#1a1f24" text-anchor="middle" font-weight="600">ConvLSTM</text><text x="953.0" y="576.0" font-family="'DejaVu Sans Mono', Consolas, monospace" font-size="9.5" fill="#5b6672" text-anchor="middle" font-weight="400">128×7×7</text><line x1="998.0" y1="532.0" x2="1006.0" y2="532.0" stroke="#6b3fa0" stroke-width="1.6"/><path d="M 1012.0 532.0 l -8 -4 l 0 8 z" fill="#6b3fa0"/><rect x="1022.0" y="494.0" width="100.0" height="64.0" rx="5" fill="#ece2f7" fill-opacity="0.5" stroke="#6b3fa0" stroke-width="1.0"/><rect x="1019.0" y="497.0" width="100.0" height="64.0" rx="5" fill="#ece2f7" fill-opacity="0.5" stroke="#6b3fa0" stroke-width="1.0"/><rect x="1016.0" y="500.0" width="100.0" height="64.0" rx="5" fill="#ece2f7" fill-opacity="1" stroke="#6b3fa0" stroke-width="1.7"/><text x="1066.0" y="529.0" font-family="Helvetica, Arial, sans-serif" font-size="10.6" fill="#1a1f24" text-anchor="middle" font-weight="600">Global</text><text x="1066.0" y="542.0" font-family="Helvetica, Arial, sans-serif" font-size="10.6" fill="#1a1f24" text-anchor="middle" font-weight="600">Pooling</text><line x1="1118.0" y1="532.0" x2="1126.0" y2="532.0" stroke="#6b3fa0" stroke-width="1.6"/><path d="M 1132.0 532.0 l -8 -4 l 0 8 z" fill="#6b3fa0"/><rect x="1142.0" y="494.0" width="86.0" height="64.0" rx="5" fill="#ece2f7" fill-opacity="0.5" stroke="#6b3fa0" stroke-width="1.0"/><rect x="1139.0" y="497.0" width="86.0" height="64.0" rx="5" fill="#ece2f7" fill-opacity="0.5" stroke="#6b3fa0" stroke-width="1.0"/><rect x="1136.0" y="500.0" width="86.0" height="64.0" rx="5" fill="#ece2f7" fill-opacity="1" stroke="#6b3fa0" stroke-width="1.7"/><text x="1179.0" y="536.0" font-family="Helvetica, Arial, sans-serif" font-size="10.6" fill="#1a1f24" text-anchor="middle" font-weight="600">MLP</text><line x1="1224.0" y1="532.0" x2="1232.0" y2="532.0" stroke="#6b3fa0" stroke-width="1.6"/><path d="M 1238.0 532.0 l -8 -4 l 0 8 z" fill="#6b3fa0"/><rect x="1248.0" y="494.0" width="86.0" height="64.0" rx="5" fill="#ece2f7" fill-opacity="0.5" stroke="#6b3fa0" stroke-width="1.0"/><rect x="1245.0" y="497.0" width="86.0" height="64.0" rx="5" fill="#ece2f7" fill-opacity="0.5" stroke="#6b3fa0" stroke-width="1.0"/><rect x="1242.0" y="500.0" width="86.0" height="64.0" rx="5" fill="#ece2f7" fill-opacity="1" stroke="#6b3fa0" stroke-width="1.7"/><text x="1285.0" y="536.0" font-family="Helvetica, Arial, sans-serif" font-size="10.6" fill="#1a1f24" text-anchor="middle" font-weight="600">Softmax</text><line x1="1330.0" y1="532.0" x2="1338.0" y2="532.0" stroke="#6b3fa0" stroke-width="1.8"/><path d="M 1344.0 532.0 l -8 -4 l 0 8 z" fill="#6b3fa0"/><rect x="1348.0" y="508.0" width="224.0" height="48.0" rx="8" fill="#efe7fb" fill-opacity="1" stroke="#6b3fa0" stroke-width="1.7"/><text x="1460.0" y="528.0" font-family="Helvetica, Arial, sans-serif" font-size="10.4" fill="#1a1f24" text-anchor="middle" font-weight="600">Crowd behaviour</text><text x="1460.0" y="544.0" font-family="Helvetica, Arial, sans-serif" font-size="9.6" fill="#6b3fa0" text-anchor="middle" font-weight="700">[ Normal | Turbulent | Compressed ]</text><text x="40.0" y="796.0" font-family="Helvetica, Arial, sans-serif" font-size="10" fill="#5b6672" text-anchor="start" font-weight="400" font-style="italic">Both branches share the MobileNetV3 backbone weights (synthetic pre-training).  Density: native 512² crops, dilated output-stride-8 backbone → 64×64 map (count).</text><text x="40.0" y="810.0" font-family="Helvetica, Arial, sans-serif" font-size="10" fill="#5b6672" text-anchor="start" font-weight="400" font-style="italic">Classification: frames resized to 224² feed both the backbone and the Farneback flow (Motion CNN) → ConvLSTM behaviour classifier.  Dimensions C×H×W.</text></svg>